<mxfile host="app.diagrams.net" agent="Mozilla/5.0 (Macintosh; Intel Mac OS X 10_15_7) AppleWebKit/537.36 (KHTML, like Gecko) Chrome/129.0.0.0 Safari/537.36" version="24.7.17">
  <diagram name="Page-1" id="4YNf4cu8ElerU1akTP_Z">
    <mxGraphModel dx="1242" dy="700" grid="1" gridSize="10" guides="1" tooltips="1" connect="1" arrows="1" fold="1" page="1" pageScale="1" pageWidth="850" pageHeight="1100" math="0" shadow="0">
      <root>
        <mxCell id="0" />
        <mxCell id="1" parent="0" />
        <mxCell id="93BI2CxBq1qP_XvaAG4y-8" style="edgeStyle=orthogonalEdgeStyle;rounded=0;orthogonalLoop=1;jettySize=auto;html=1;exitX=1;exitY=0.25;exitDx=0;exitDy=0;entryX=0;entryY=0.5;entryDx=0;entryDy=0;" edge="1" parent="1" source="93BI2CxBq1qP_XvaAG4y-1" target="93BI2CxBq1qP_XvaAG4y-2">
          <mxGeometry relative="1" as="geometry" />
        </mxCell>
        <mxCell id="93BI2CxBq1qP_XvaAG4y-10" style="edgeStyle=orthogonalEdgeStyle;rounded=0;orthogonalLoop=1;jettySize=auto;html=1;exitX=1;exitY=0.75;exitDx=0;exitDy=0;entryX=0;entryY=0.5;entryDx=0;entryDy=0;" edge="1" parent="1" source="93BI2CxBq1qP_XvaAG4y-1" target="93BI2CxBq1qP_XvaAG4y-4">
          <mxGeometry relative="1" as="geometry" />
        </mxCell>
        <mxCell id="93BI2CxBq1qP_XvaAG4y-12" value="push by job" style="edgeLabel;html=1;align=center;verticalAlign=middle;resizable=0;points=[];" vertex="1" connectable="0" parent="93BI2CxBq1qP_XvaAG4y-10">
          <mxGeometry x="-0.1122" y="1" relative="1" as="geometry">
            <mxPoint as="offset" />
          </mxGeometry>
        </mxCell>
        <mxCell id="93BI2CxBq1qP_XvaAG4y-1" value="ticket-gateway-service" style="rounded=1;whiteSpace=wrap;html=1;" vertex="1" parent="1">
          <mxGeometry x="340" y="280" width="120" height="60" as="geometry" />
        </mxCell>
        <mxCell id="93BI2CxBq1qP_XvaAG4y-2" value="old photo-service" style="rounded=1;whiteSpace=wrap;html=1;" vertex="1" parent="1">
          <mxGeometry x="590" y="210" width="120" height="60" as="geometry" />
        </mxCell>
        <mxCell id="93BI2CxBq1qP_XvaAG4y-3" value="new photo-service" style="rounded=1;whiteSpace=wrap;html=1;" vertex="1" parent="1">
          <mxGeometry x="590" y="120" width="120" height="60" as="geometry" />
        </mxCell>
        <mxCell id="93BI2CxBq1qP_XvaAG4y-4" value="tcon" style="rounded=1;whiteSpace=wrap;html=1;" vertex="1" parent="1">
          <mxGeometry x="590" y="370" width="120" height="60" as="geometry" />
        </mxCell>
        <mxCell id="93BI2CxBq1qP_XvaAG4y-9" style="edgeStyle=orthogonalEdgeStyle;rounded=0;orthogonalLoop=1;jettySize=auto;html=1;exitX=1;exitY=0.5;exitDx=0;exitDy=0;entryX=0;entryY=0.75;entryDx=0;entryDy=0;" edge="1" parent="1" source="93BI2CxBq1qP_XvaAG4y-5" target="93BI2CxBq1qP_XvaAG4y-1">
          <mxGeometry relative="1" as="geometry" />
        </mxCell>
        <mxCell id="93BI2CxBq1qP_XvaAG4y-11" value="DPA redemption" style="edgeLabel;html=1;align=center;verticalAlign=middle;resizable=0;points=[];" vertex="1" connectable="0" parent="93BI2CxBq1qP_XvaAG4y-9">
          <mxGeometry x="-0.1282" relative="1" as="geometry">
            <mxPoint as="offset" />
          </mxGeometry>
        </mxCell>
        <mxCell id="93BI2CxBq1qP_XvaAG4y-5" value="GXP" style="rounded=1;whiteSpace=wrap;html=1;" vertex="1" parent="1">
          <mxGeometry x="110" y="380" width="120" height="60" as="geometry" />
        </mxCell>
        <mxCell id="93BI2CxBq1qP_XvaAG4y-7" style="edgeStyle=orthogonalEdgeStyle;rounded=0;orthogonalLoop=1;jettySize=auto;html=1;exitX=1;exitY=0.75;exitDx=0;exitDy=0;entryX=0;entryY=0.25;entryDx=0;entryDy=0;" edge="1" parent="1" source="93BI2CxBq1qP_XvaAG4y-6" target="93BI2CxBq1qP_XvaAG4y-1">
          <mxGeometry relative="1" as="geometry" />
        </mxCell>
        <mxCell id="93BI2CxBq1qP_XvaAG4y-14" value="fetch image of guest through TGS" style="edgeLabel;html=1;align=center;verticalAlign=middle;resizable=0;points=[];" vertex="1" connectable="0" parent="93BI2CxBq1qP_XvaAG4y-7">
          <mxGeometry x="-0.075" y="1" relative="1" as="geometry">
            <mxPoint as="offset" />
          </mxGeometry>
        </mxCell>
        <mxCell id="93BI2CxBq1qP_XvaAG4y-13" style="edgeStyle=orthogonalEdgeStyle;rounded=0;orthogonalLoop=1;jettySize=auto;html=1;exitX=1;exitY=0.25;exitDx=0;exitDy=0;entryX=0;entryY=0.25;entryDx=0;entryDy=0;fillColor=#d5e8d4;strokeColor=#82b366;" edge="1" parent="1" source="93BI2CxBq1qP_XvaAG4y-6" target="93BI2CxBq1qP_XvaAG4y-3">
          <mxGeometry relative="1" as="geometry" />
        </mxCell>
        <mxCell id="93BI2CxBq1qP_XvaAG4y-20" value="direct call" style="edgeLabel;html=1;align=center;verticalAlign=middle;resizable=0;points=[];" vertex="1" connectable="0" parent="93BI2CxBq1qP_XvaAG4y-13">
          <mxGeometry x="-0.3833" y="3" relative="1" as="geometry">
            <mxPoint as="offset" />
          </mxGeometry>
        </mxCell>
        <mxCell id="93BI2CxBq1qP_XvaAG4y-6" value="GIS" style="rounded=1;whiteSpace=wrap;html=1;" vertex="1" parent="1">
          <mxGeometry x="110" y="120" width="120" height="60" as="geometry" />
        </mxCell>
      </root>
    </mxGraphModel>
  </diagram>
</mxfile>
